<svg xmlns="http://www.w3.org/2000/svg" xmlns:xlink="http://www.w3.org/1999/xlink" width="193" height="68" viewBox="0 0 193 68"><defs><style>.a{opacity:0.7;}.b{fill:#cdcdcd;font-size:12px;font-family:AudiType-Normal, Audi Type;letter-spacing:0.024em;}.c,.d,.e{fill:none;}.c,.d{stroke:#fff;}.c{stroke-miterlimit:10;}.e{stroke:#d02038;stroke-dasharray:2;}.f{filter:url(#c);}.g{filter:url(#a);}</style><filter id="a" x="0" y="0" width="193" height="68" filterUnits="userSpaceOnUse"><feOffset dy="3" input="SourceAlpha"/><feGaussianBlur stdDeviation="3" result="b"/><feFlood flood-opacity="0.161"/><feComposite operator="in" in2="b"/><feComposite in="SourceGraphic"/></filter><filter id="c" x="58.5" y="22.5" width="112" height="24" filterUnits="userSpaceOnUse"><feOffset dy="3" input="SourceAlpha"/><feGaussianBlur stdDeviation="1.5" result="d"/><feFlood flood-opacity="0.4"/><feComposite operator="in" in2="d"/><feComposite in="SourceGraphic"/></filter></defs><g transform="translate(9 6)"><g class="g" transform="matrix(1, 0, 0, 1, -9, -6)"><rect class="a" width="175" height="50" transform="translate(9 6)"/></g><g transform="translate(-407 -352)"><g class="f" transform="matrix(1, 0, 0, 1, 398, 346)"><text class="b" transform="translate(63 36)"><tspan x="0" y="0">DRAG TO ROTATE</tspan></text></g><g transform="translate(0 -0.5)"><g transform="translate(8.306 150.701)"><path class="c" d="M479.969,231.6V221.5a1.555,1.555,0,0,1,1.555-1.555h0a1.555,1.555,0,0,1,1.555,1.548l.03,6.636" transform="translate(-55.425)"/><path class="c" d="M427.68,334.528v-.508a1.578,1.578,0,0,1,1.578-1.578h0a1.578,1.578,0,0,1,1.578,1.586l-.014,2.678v-1.1a1.54,1.54,0,0,1,1.54-1.54h0a1.54,1.54,0,0,1,1.539,1.484l.078,2.164v-1.286a1.439,1.439,0,0,1,1.446-1.348h-.1a1.741,1.741,0,0,1,1.741,1.741v4.343a4.635,4.635,0,0,1-.5,1.567,12.29,12.29,0,0,0-.667,2.927c-.029.174,0,2.637,0,2.637H424.6a21.222,21.222,0,0,1-.261-2.492,10.761,10.761,0,0,0-1.371-2.34c-3.593-6.962,1.536-6.542,1.536-6.542" transform="translate(0 -106.995)"/></g><g transform="translate(0.5)"><path class="d" d="M116.5-328.5l2.7,2.7-2.7,2.7" transform="translate(326 692)"/><path class="d" d="M116.5-328.5l2.7,2.7-2.7,2.7" transform="translate(544.699 40.398) rotate(180)"/><line class="e" x1="12" transform="translate(428.5 366.5)"/></g></g></g></g></svg>