<svg xmlns="http://www.w3.org/2000/svg" width="385.633" height="116.345" viewBox="0 0 385.633 116.345"><defs><style>.a,.b,.c,.d{fill:none;}.a{stroke:#b3b3b3;}.b,.c{stroke:#000;}.b{stroke-miterlimit:10;}.d{stroke:#d02038;stroke-dasharray:2;}</style></defs><g transform="translate(484.341 -251.655)"><path class="a" d="M-397.351,445.123s-54.551,20.336-30.019,51.323c12.487,15.773,49.638,29.039,85.216,36.152a452.255,452.255,0,0,0,66.817,7.747" transform="translate(-50 -193)"/><path class="a" d="M-311.7,445.123s54.551,20.336,30.019,51.323c-12.487,15.773-49.638,29.039-85.216,36.152a452.255,452.255,0,0,1-66.817,7.747" transform="translate(176 -193)"/><g transform="translate(-298 339)"><g transform="translate(-417.694 -212.799)"><path class="b" d="M479.969,231.6V221.5a1.555,1.555,0,0,1,1.555-1.555h0a1.555,1.555,0,0,1,1.555,1.548l.03,6.636" transform="translate(-55.425)"/><path class="b" d="M427.68,334.528v-.508a1.578,1.578,0,0,1,1.578-1.578h0a1.578,1.578,0,0,1,1.578,1.586l-.014,2.678v-1.1a1.54,1.54,0,0,1,1.54-1.54h0a1.54,1.54,0,0,1,1.539,1.484l.078,2.164v-1.286a1.439,1.439,0,0,1,1.446-1.348h-.1a1.741,1.741,0,0,1,1.741,1.741v4.343a4.635,4.635,0,0,1-.5,1.567,12.29,12.29,0,0,0-.667,2.927c-.029.174,0,2.637,0,2.637H424.6a21.222,21.222,0,0,1-.261-2.492,10.761,10.761,0,0,0-1.371-2.34c-3.593-6.962,1.536-6.542,1.536-6.542" transform="translate(0 -106.995)"/></g><g transform="translate(-425.5 -363.5)"><path class="c" d="M116.5-328.5l2.7,2.7-2.7,2.7" transform="translate(326 692)"/><path class="c" d="M116.5-328.5l2.7,2.7-2.7,2.7" transform="translate(544.699 40.398) rotate(180)"/><line class="d" x1="12" transform="translate(428.5 366.5)"/></g></g></g></svg>